<svg xmlns="http://www.w3.org/2000/svg" viewBox="0 0 160 160" fill="none">
  <defs>
    <linearGradient id="markGold" x1="28" y1="18" x2="132" y2="142" gradientUnits="userSpaceOnUse">
      <stop offset="0" stop-color="#F2C770"/>
      <stop offset="0.58" stop-color="#E0A020"/>
      <stop offset="1" stop-color="#B8821A"/>
    </linearGradient>
    <linearGradient id="markNavy" x1="48" y1="40" x2="112" y2="124" gradientUnits="userSpaceOnUse">
      <stop offset="0" stop-color="#203070"/>
      <stop offset="1" stop-color="#102070"/>
    </linearGradient>
  </defs>

  <circle cx="80" cy="80" r="56" stroke="url(#markGold)" stroke-width="8"/>
  <circle cx="80" cy="80" r="39" stroke="#D8C8A4" stroke-width="2"/>
  <g stroke="#203070" stroke-linecap="round" opacity="0.9">
    <path d="M80 29V50" stroke-width="3"/>
    <path d="M80 29V50" stroke-width="3" transform="rotate(45 80 80)"/>
    <path d="M80 29V50" stroke-width="3" transform="rotate(90 80 80)"/>
    <path d="M80 29V50" stroke-width="3" transform="rotate(135 80 80)"/>
    <path d="M80 29V50" stroke-width="3" transform="rotate(180 80 80)"/>
    <path d="M80 29V50" stroke-width="3" transform="rotate(225 80 80)"/>
    <path d="M80 29V50" stroke-width="3" transform="rotate(270 80 80)"/>
    <path d="M80 29V50" stroke-width="3" transform="rotate(315 80 80)"/>
  </g>

  <circle cx="80" cy="80" r="9.5" fill="url(#markGold)" stroke="#203070" stroke-width="2"/>
  <circle cx="80" cy="80" r="3" fill="#203070"/>

  <path
    d="M55 115C63 106 71 101 80 101C89 101 97 106 105 115"
    stroke="url(#markNavy)"
    stroke-width="5"
    stroke-linecap="round"
  />
  <path
    d="M42 123C53 114 66 109 80 109C94 109 107 114 118 123"
    stroke="#E0A020"
    stroke-width="5"
    stroke-linecap="round"
  />
</svg>
