<svg xmlns="http://www.w3.org/2000/svg" viewBox="0 0 64 64" fill="none">
  <rect width="64" height="64" rx="14" fill="#FAF8F4"/>
  <circle cx="32" cy="30" r="21" stroke="#E0A020" stroke-width="3.2"/>
  <circle cx="32" cy="30" r="14.5" stroke="#D7C7A6" stroke-width="1.4"/>
  <g stroke="#203070" stroke-linecap="round" opacity=".92">
    <path d="M32 12V20.5" stroke-width="2"/>
    <path d="M32 12V20.5" stroke-width="2" transform="rotate(45 32 30)"/>
    <path d="M32 12V20.5" stroke-width="2" transform="rotate(90 32 30)"/>
    <path d="M32 12V20.5" stroke-width="2" transform="rotate(135 32 30)"/>
    <path d="M32 12V20.5" stroke-width="2" transform="rotate(180 32 30)"/>
    <path d="M32 12V20.5" stroke-width="2" transform="rotate(225 32 30)"/>
    <path d="M32 12V20.5" stroke-width="2" transform="rotate(270 32 30)"/>
    <path d="M32 12V20.5" stroke-width="2" transform="rotate(315 32 30)"/>
  </g>
  <circle cx="32" cy="30" r="4.5" fill="#E0A020" stroke="#203070" stroke-width="1.6"/>
  <path d="M23 44C25.5 41.2 28.5 39.8 32 39.8C35.5 39.8 38.5 41.2 41 44" stroke="#203070" stroke-width="2.3" stroke-linecap="round"/>
  <path d="M18.5 48C22.4 45 26.8 43.6 32 43.6C37.2 43.6 41.6 45 45.5 48" stroke="#E0A020" stroke-width="2.4" stroke-linecap="round"/>
</svg>
