<svg xmlns="http://www.w3.org/2000/svg" viewBox="0 0 1200 630" width="1200" height="630">
  <defs>
    <linearGradient id="bg" x1="0" y1="0" x2="0.88" y2="1">
      <stop offset="0%" stop-color="#FAF8F4"/>
      <stop offset="50%" stop-color="#F6E7C8"/>
      <stop offset="100%" stop-color="#EFE6D8"/>
    </linearGradient>
    <radialGradient id="glow" cx="0.16" cy="0.26" r="0.62">
      <stop offset="0%" stop-color="#E0A020" stop-opacity="0.24"/>
      <stop offset="100%" stop-color="#E0A020" stop-opacity="0"/>
    </radialGradient>
    <radialGradient id="glow2" cx="0.84" cy="0.72" r="0.46">
      <stop offset="0%" stop-color="#203070" stop-opacity="0.12"/>
      <stop offset="100%" stop-color="#203070" stop-opacity="0"/>
    </radialGradient>
    <style>
      .eyebrow { font-family: "Inter", system-ui, sans-serif; letter-spacing: 0.28em; font-size: 19px; fill: #6B7480; font-weight: 700; text-transform: uppercase; }
      .folio { font-family: "Playfair Display", Georgia, serif; font-style: italic; font-size: 22px; fill: #B8821A; }
      .brand { font-family: "Inter", system-ui, sans-serif; letter-spacing: 0.18em; font-size: 21px; fill: #203070; font-weight: 700; text-transform: uppercase; }
      .title { font-family: "Playfair Display", "Source Serif 4", Georgia, serif; font-size: 84px; font-weight: 700; fill: #1C2B3A; letter-spacing: -0.03em; }
      .title-accent { font-family: "Playfair Display", "Source Serif 4", Georgia, serif; font-size: 84px; font-weight: 700; font-style: italic; fill: #203070; letter-spacing: -0.03em; }
      .sub { font-family: "Inter", system-ui, sans-serif; font-size: 25px; fill: #2D3748; font-weight: 500; }
      .chip { font-family: "Inter", system-ui, sans-serif; font-size: 18px; fill: #203070; font-weight: 700; letter-spacing: 0.12em; text-transform: uppercase; }
      .chip-body { font-family: "Inter", system-ui, sans-serif; font-size: 17px; fill: #5B6472; font-weight: 500; }
      .url { font-family: "Inter", system-ui, sans-serif; font-size: 18px; fill: #6B7480; letter-spacing: 0.06em; text-transform: uppercase; font-weight: 600; }
    </style>
  </defs>
  <rect width="1200" height="630" fill="url(#bg)"/>
  <rect width="1200" height="630" fill="url(#glow)"/>
  <rect width="1200" height="630" fill="url(#glow2)"/>

  <g transform="translate(96, 96)">
    <circle cx="0" cy="0" r="34" fill="none" stroke="#E0A020" stroke-width="3"/>
    <circle cx="0" cy="0" r="22" fill="none" stroke="#D7C7A6" stroke-width="1.6"/>
    <g stroke="#203070" stroke-width="1.8" stroke-linecap="round" opacity="0.92">
      <line x1="0" y1="-33" x2="0" y2="-16"/>
      <line x1="0" y1="-33" x2="0" y2="-16" transform="rotate(45)"/>
      <line x1="0" y1="-33" x2="0" y2="-16" transform="rotate(90)"/>
      <line x1="0" y1="-33" x2="0" y2="-16" transform="rotate(135)"/>
      <line x1="0" y1="-33" x2="0" y2="-16" transform="rotate(180)"/>
      <line x1="0" y1="-33" x2="0" y2="-16" transform="rotate(225)"/>
      <line x1="0" y1="-33" x2="0" y2="-16" transform="rotate(270)"/>
      <line x1="0" y1="-33" x2="0" y2="-16" transform="rotate(315)"/>
    </g>
    <circle cx="0" cy="0" r="6" fill="#E0A020" stroke="#203070" stroke-width="1.8"/>
    <path d="M-12 20C-9 16 -5 14 0 14C5 14 9 16 12 20" stroke="#203070" stroke-width="2.4" stroke-linecap="round"/>
    <path d="M-17 25C-12 21 -6 19 0 19C6 19 12 21 17 25" stroke="#E0A020" stroke-width="2.6" stroke-linecap="round"/>
  </g>

  <text x="158" y="104" class="folio">2026</text>
  <text x="96" y="160" class="brand">Tergar Czechia</text>
  <text x="96" y="272" class="title">Meditace pro</text>
  <text x="96" y="364" class="title-accent">český život.</text>
  <text x="96" y="430" class="sub">Klidná, moderní sangha pro meditaci, praxi a lidskou srozumitelnost.</text>

  <g transform="translate(96 480)">
    <rect width="208" height="72" rx="20" fill="#FAF8F4" stroke="#D7C7A6"/>
    <text x="28" y="30" class="chip">Začít</text>
    <text x="28" y="52" class="chip-body">5 minut bez závazku</text>
  </g>
  <g transform="translate(324 480)">
    <rect width="214" height="72" rx="20" fill="#FAF8F4" stroke="#D7C7A6"/>
    <text x="28" y="30" class="chip">Skupiny</text>
    <text x="28" y="52" class="chip-body">Praha • regiony • online</text>
  </g>
  <g transform="translate(558 480)">
    <rect width="254" height="72" rx="20" fill="#203070"/>
    <text x="28" y="30" class="chip" style="fill:#F2C770">Program</text>
    <text x="28" y="52" class="chip-body" style="fill:#F6E7C8">Joy of Living → Vajrayana</text>
  </g>

  <g transform="translate(888 134)">
    <circle cx="118" cy="118" r="108" fill="#FAF8F4" stroke="#E0A020" stroke-width="4"/>
    <circle cx="118" cy="118" r="74" fill="none" stroke="#D7C7A6" stroke-width="2"/>
    <g stroke="#203070" stroke-width="3.6" stroke-linecap="round" opacity="0.92">
      <line x1="118" y1="36" x2="118" y2="76"/>
      <line x1="118" y1="36" x2="118" y2="76" transform="rotate(45 118 118)"/>
      <line x1="118" y1="36" x2="118" y2="76" transform="rotate(90 118 118)"/>
      <line x1="118" y1="36" x2="118" y2="76" transform="rotate(135 118 118)"/>
      <line x1="118" y1="36" x2="118" y2="76" transform="rotate(180 118 118)"/>
      <line x1="118" y1="36" x2="118" y2="76" transform="rotate(225 118 118)"/>
      <line x1="118" y1="36" x2="118" y2="76" transform="rotate(270 118 118)"/>
      <line x1="118" y1="36" x2="118" y2="76" transform="rotate(315 118 118)"/>
    </g>
    <circle cx="118" cy="118" r="20" fill="#E0A020" stroke="#203070" stroke-width="4"/>
    <circle cx="118" cy="118" r="6" fill="#203070"/>
    <path d="M72 178C84 164 99 157 118 157C137 157 152 164 164 178" stroke="#203070" stroke-width="7" stroke-linecap="round"/>
    <path d="M51 194C68 181 90 174 118 174C146 174 168 181 185 194" stroke="#E0A020" stroke-width="7" stroke-linecap="round"/>
  </g>

  <line x1="96" y1="586" x2="1104" y2="586" stroke="#D7C7A6" stroke-width="1"/>
  <text x="96" y="616" class="url">tergarczechia.cz</text>
  <text x="1104" y="616" class="url" text-anchor="end">Praha • České Budějovice • Liberec • Online</text>
</svg>
